<svg width="198" height="340" viewBox="0 0 198 340" fill="none" xmlns="http://www.w3.org/2000/svg">
    <path d="M11 0L197.72 83.33L11 167.14V0Z" fill="#191B1E" />
    <path
        d="M70.8899 131.7L53.7099 139.38L39.8399 101.46V145.62L19.6399 154.68V12.25L39.8399 21.3V61.14L51.5899 26.56L70.4099 34.95L81.5399 105.73L91.2399 44.24L134.53 63.59V72.53L109.52 61.36L108.48 67.97L134.53 79.64V103.14L100.51 118.47L103.61 98.81L120.59 91.12L100.51 82.13L94.3399 121.18L71.4299 131.45L57.5199 59.46L50.7099 78.96L70.8899 131.7Z"
        fill="white" />
    <path d="M141.74 66.8201L178.71 83.3101L141.74 99.8601V66.8201Z" fill="#F4691B" />
    <rect width="6" height="340" fill="#191B1E" />
</svg>